<?xml version="1.0" encoding="utf-8"?>
<!-- Generator: Adobe Illustrator 21.1.0, SVG Export Plug-In . SVG Version: 6.00 Build 0)  -->
<svg version="1.1" id="레이어_1" xmlns="http://www.w3.org/2000/svg" xmlns:xlink="http://www.w3.org/1999/xlink" x="0px"
	 y="0px" viewBox="0 0 600 300" style="enable-background:new 0 0 600 300;" xml:space="preserve">
<style type="text/css">
	.st0{fill:#546BCC;}
	.st1{fill:#FFFFFF;}
	.st2{fill:none;stroke:#000000;stroke-width:6;stroke-linecap:round;stroke-miterlimit:6;}
</style>
<g>
	<path class="st0" d="M504.6,949.9c-9.3-130.2-89.8-214.6-89.8-214.6l0,0l0,0c0,0-80.5,84.4-89.8,214.6c-0.4,3.4-0.6,6.8-0.6,10.3
		c0,49.9,40.5,90.4,90.4,90.4h0h0c49.9,0,90.4-40.5,90.4-90.4C505.2,956.7,505,953.3,504.6,949.9z"/>
	<g>
		<circle class="st1" cx="398.6" cy="913.9" r="7.3"/>
		<circle class="st1" cx="398.6" cy="955.6" r="7.3"/>
		<path class="st1" d="M422.8,877l-5.2,2.6c12.9,17.6,12.8,51.7,12.8,51.7s0.1,34.1-12.8,51.7l5.2,2.6c0,0,16.1-22.6,15.5-54.3
			C438.9,899.6,422.8,877,422.8,877z"/>
	</g>
</g>
<g>
	<g>
		<path class="st2" d="M207.1,136.5l33.7-13.1c11.2-2.8,8.4-7.5,8.4-7.5V80.4"/>
		<path class="st2" d="M293.1,136.5l-33.7-13.1c-11.2-2.8-8.4-7.5-8.4-7.5V80.4"/>
	</g>
	<g>
		<path class="st2" d="M417.7,82.2h-47.3c0,0-14.1-0.3-14.3,7.4V104"/>
		<path class="st2" d="M417.7,125.9h-47.3c0,0-14.1,0.3-14.3-7.4V104"/>
	</g>
	<g>
		<path class="st2" d="M541.1,82.2h-37.9c0,0-11.3-0.3-11.4,7.4V104"/>
		<path class="st2" d="M541.1,125.9h-37.9c0,0-11.3,0.3-11.4-7.4V104"/>
		<path class="st2" d="M504.9,82.2h33.9c0,0,10.1-0.3,10.2,7.4V104"/>
		<path class="st2" d="M504.9,125.9h33.9c0,0,10.1,0.3,10.2-7.4V104"/>
	</g>
	<g>
		<line class="st2" x1="386.9" y1="144.9" x2="386.9" y2="167"/>
		<line class="st2" x1="332.4" y1="167" x2="441.4" y2="167"/>
	</g>
	<g>
		<line class="st2" x1="520.4" y1="152.8" x2="520.4" y2="175"/>
		<line class="st2" x1="465.9" y1="152.8" x2="574.9" y2="152.8"/>
	</g>
	<g>
		<line class="st2" x1="249.5" y1="170.4" x2="249.5" y2="220.8"/>
		<line class="st2" x1="195" y1="170.4" x2="304" y2="170.4"/>
	</g>
	<path class="st2" d="M356.1,182.6v25.8c0,0-0.7,10.7,19.5,10.7c20.3,0,49,0,49,0h1.8"/>
	<path class="st2" d="M484.7,178.8h61.5c0,0,5.2,0.8,5.2,6.3c0,5.2,0,7.6,0,7.6s-0.2,6.1-5.2,6.1c-5.8,0-50-0.3-50.1,0
		c0,0-7.1,1.8-7.1,7.6c0,6.5,0,7.7,0,7.7s0.8,4.9,7.9,4.9c8,0,59.2,0,59.2,0"/>
</g>
<g>
	<path class="st0" d="M170.6,201.3c-8.2-115-79.3-189.5-79.3-189.5l0,0l0,0c0,0-71.1,74.5-79.3,189.5c-0.3,3-0.5,6-0.5,9.1
		c0,44.1,35.7,79.8,79.8,79.8h0h0c44.1,0,79.8-35.7,79.8-79.8C171.2,207.3,171,204.3,170.6,201.3z"/>
	<g>
		<circle class="st1" cx="77" cy="169.5" r="6.5"/>
		<circle class="st1" cx="77" cy="206.3" r="6.5"/>
		<path class="st1" d="M98.4,136.9l-4.6,2.3c11.4,15.5,11.3,45.6,11.3,45.6s0.1,30.1-11.3,45.6l4.6,2.3c0,0,14.2-19.9,13.7-47.9
			C112.6,156.9,98.4,136.9,98.4,136.9z"/>
	</g>
</g>
</svg>
